HIERARCHY
ROOT Hips
{
 OFFSET 0.000000 0.000000 0.000000
 CHANNELS 6 Xposition Yposition Zposition Yrotation Xrotation Zrotation
 JOINT Chest
 {
  OFFSET 0.000000 9.585900 0.002600
  CHANNELS 3 Yrotation Xrotation Zrotation
  JOINT Chest2
  {
   OFFSET 0.000000 9.601200 -0.005300
   CHANNELS 3 Yrotation Xrotation Zrotation
   JOINT Chest3
   {
    OFFSET 0.000000 9.561800 0.000000
    CHANNELS 3 Yrotation Xrotation Zrotation
    JOINT Chest4
    {
     OFFSET 0.000000 9.552100 0.000000
     CHANNELS 3 Yrotation Xrotation Zrotation
     JOINT Neck
     {
      OFFSET 0.000000 14.453000 0.000000
      CHANNELS 3 Yrotation Xrotation Zrotation
      JOINT Head
      {
       OFFSET 0.000000 8.936500 -0.011300
       CHANNELS 3 Yrotation Xrotation Zrotation
       End Site
       {
        OFFSET 0.000000 17.073600 -0.006000
       }
      }
     }
     JOINT RightCollar
     {
      OFFSET -2.921100 9.558500 0.000000
      CHANNELS 3 Yrotation Xrotation Zrotation
      JOINT RightShoulder
      {
       OFFSET -13.519700 0.000000 0.000000
       CHANNELS 3 Yrotation Xrotation Zrotation
       JOINT RightElbow
       {
        OFFSET 0.000000 -29.696600 0.000000
        CHANNELS 3 Yrotation Xrotation Zrotation
        JOINT RightWrist
        {
         OFFSET 0.000000 -24.004700 0.000000
         CHANNELS 3 Yrotation Xrotation Zrotation
         End Site
         {
          OFFSET 0.000000 -17.728500 0.000000
         }
        }
       }
      }
     }
     JOINT LeftCollar
     {
      OFFSET 2.921100 9.558500 0.000000
      CHANNELS 3 Yrotation Xrotation Zrotation
      JOINT LeftShoulder
      {
       OFFSET 13.519700 0.000000 0.000000
       CHANNELS 3 Yrotation Xrotation Zrotation
       JOINT LeftElbow
       {
        OFFSET 0.000000 -29.696600 0.000000
        CHANNELS 3 Yrotation Xrotation Zrotation
        JOINT LeftWrist
        {
         OFFSET 0.000000 -24.004700 0.000000
         CHANNELS 3 Yrotation Xrotation Zrotation
         End Site
         {
          OFFSET 0.000000 -17.728500 0.000000
         }
        }
       }
      }
     }
    }
   }
  }
 }
 JOINT RightHip
 {
  OFFSET -7.771700 -0.012900 -0.001300
  CHANNELS 3 Yrotation Xrotation Zrotation
  JOINT RightKnee
  {
   OFFSET 0.000000 -40.869800 0.001200
   CHANNELS 3 Yrotation Xrotation Zrotation
   JOINT RightAnkle
   {
    OFFSET 0.000000 -39.717900 0.002100
    CHANNELS 3 Yrotation Xrotation Zrotation
    JOINT RightToe
    {
     OFFSET 0.000000 -4.965400 11.033500
     CHANNELS 3 Yrotation Xrotation Zrotation
     End Site
     {
      OFFSET 0.000000 -1.423100 5.872300
     }
    }
   }
  }
 }
 JOINT LeftHip
 {
  OFFSET 7.771700 -0.012900 -0.001300
  CHANNELS 3 Yrotation Xrotation Zrotation
  JOINT LeftKnee
  {
   OFFSET 0.000000 -40.869800 0.001200
   CHANNELS 3 Yrotation Xrotation Zrotation
   JOINT LeftAnkle
   {
    OFFSET 0.000000 -39.717900 0.002100
    CHANNELS 3 Yrotation Xrotation Zrotation
    JOINT LeftToe
    {
     OFFSET 0.000000 -4.965400 11.033500
     CHANNELS 3 Yrotation Xrotation Zrotation
     End Site
     {
      OFFSET 0.000000 -1.423100 5.872300
     }
    }
   }
  }
 }
}
MOTION
Frames: 15
Frame Time: 0.008333
0.000000 85.388000 0.000000 0.000000 -5.767877 0.000000 0.000000 11.653817 0.000000 0.000000 -5.885947 0.000000 0.000000 -0.000000 0.000000 0.000000 -0.000000 0.000000 0.000000 12.528835 0.000000 0.000000 0.711642 0.000000 0.000000 -0.000000 0.000000 0.000000 0.000000 -90.000000 0.000000 -2.309062 0.000000 0.000000 2.309062 0.000000 0.000000 -0.000000 0.000000 0.000000 -0.000000 90.000000 0.000000 -2.309062 0.000000 0.000000 2.309062 0.000000 0.000000 8.520406 0.000000 0.000000 1.905762 0.000000 -0.000000 -4.658285 0.000000 0.000000 -0.000000 0.000000 0.000000 8.520406 0.000000 0.000000 1.905762 0.000000 -0.000000 -4.658285 0.000000 0.000000 -0.000000 0.000000
-50.305369 56.996631 18.163076 157.382573 -15.526508 -0.269583 0.174808 11.176606 3.534412 0.010755 0.795342 0.188809 0.020084 1.363167 0.323829 0.351446 10.381693 2.504138 19.862093 20.040672 -0.821886 36.357107 3.805863 -6.922205 0.847756 6.550791 -3.058274 -2.999427 -8.225932 -9.237591 154.814656 -86.745590 -133.636659 -0.657212 9.055315 -28.596158 -4.554852 5.532076 -0.777652 4.978964 -10.303917 8.599202 163.504544 -77.341786 164.438370 -4.911967 7.134113 8.706727 -2.774085 -57.172065 7.151149 -39.327916 66.852645 -44.629709 -6.832663 -1.705402 2.445157 -0.449346 0.902530 -0.216537 -2.549991 -59.245787 19.358884 41.256239 63.831723 36.140559 -17.728793 -9.665989 3.351141 0.252936 -0.705583 -0.016419
-50.320042 56.999303 18.139662 157.608180 -15.494244 -0.247694 0.193345 11.236782 3.483868 0.016144 0.797546 0.185999 0.029276 1.366924 0.319046 0.419218 10.398288 2.470446 20.184061 19.918775 -0.853670 36.967850 3.666430 -7.082763 0.798958 6.533196 -2.979453 -3.095024 -8.160956 -9.238138 154.640377 -86.800520 -133.356539 -0.659596 9.067715 -28.605348 -4.571050 5.549730 -0.775003 4.838851 -10.108584 8.540296 166.643946 -77.234995 161.520895 -5.043823 7.357018 9.074698 -2.983265 -57.186238 6.968460 -39.290528 66.974451 -44.581484 -6.692527 -1.925570 2.487517 -0.557082 0.962600 -0.270171 -2.660998 -59.276624 19.198662 41.233501 63.807433 36.126886 -17.780397 -9.635955 3.347911 0.297619 -0.733581 0.007733
-50.338484 57.001316 18.116008 157.838983 -15.427022 -0.217335 0.215120 11.262652 3.423826 0.021533 0.799781 0.183137 0.038487 1.370690 0.314151 0.487013 10.414665 2.436094 20.480950 19.788691 -0.890886 37.536442 3.509864 -7.249841 0.743809 6.507190 -2.903280 -3.195710 -8.083219 -9.218969 154.522831 -86.844500 -133.138706 -0.661332 9.074474 -28.623875 -4.591867 5.565990 -0.770860 4.703977 -9.915084 8.472767 169.422032 -77.126068 158.926948 -5.139983 7.560439 9.425871 -3.156269 -57.246295 6.788384 -39.350347 67.060389 -44.626006 -6.635535 -2.109134 2.498625 -0.575169 1.002032 -0.284962 -2.818742 -59.337189 19.021032 41.318034 63.752298 36.205386 -17.743086 -9.601318 3.357597 0.270785 -0.766481 0.000525
-50.357875 57.003723 18.089292 158.066579 -15.351296 -0.183826 0.249112 11.279669 3.360445 0.027248 0.802264 0.180255 0.048250 1.374784 0.309221 0.558542 10.431943 2.401467 20.752364 19.651117 -0.932461 38.061896 3.336779 -7.421332 0.676860 6.474544 -2.827170 -3.297986 -7.997238 -9.182165 154.479950 -86.880192 -132.997824 -0.666724 9.073892 -28.648165 -4.618727 5.576939 -0.763859 4.571923 -9.723161 8.399908 171.629005 -77.056054 156.843868 -5.197518 7.744900 9.757132 -3.332610 -57.316252 6.602224 -39.414878 67.154603 -44.672317 -6.579663 -2.314215 2.536580 -0.586155 1.054160 -0.327040 -2.948451 -59.411967 18.829619 41.380222 63.707917 36.271561 -17.720359 -9.567200 3.360475 0.258022 -0.798546 0.002647
-50.376478 57.006772 18.059308 158.299416 -15.276560 -0.156564 0.288552 11.295764 3.303663 0.033459 0.804780 0.177254 0.058799 1.378949 0.304088 0.635845 10.449155 2.365657 20.999112 19.506798 -0.976492 38.545002 3.147958 -7.594106 0.593024 6.438731 -2.753641 -3.398462 -7.902528 -9.126490 154.508536 -86.909692 -132.930710 -0.676152 9.060547 -28.676754 -4.652004 5.585423 -0.751939 4.440019 -9.533614 8.320223 173.162550 -77.059900 155.364153 -5.210653 7.905683 10.062008 -3.521133 -57.390464 6.417477 -39.480442 67.260042 -44.712095 -6.514906 -2.488301 2.547473 -0.597277 1.091933 -0.353752 -3.084835 -59.487252 18.643132 41.435457 63.669231 36.335972 -17.702250 -9.538753 3.360376 0.235319 -0.827202 0.003747
-50.393657 57.010078 18.027892 158.521937 -15.197870 -0.136924 0.346914 11.304433 3.259664 0.040018 0.807016 0.174144 0.069979 1.382701 0.298750 0.717936 10.464410 2.329190 21.226097 19.356754 -1.022094 38.994268 2.945929 -7.767511 0.498203 6.405071 -2.686251 -3.499598 -7.799647 -9.051977 154.609617 -86.935033 -132.936365 -0.688149 9.038242 -28.709798 -4.686215 5.596871 -0.737218 4.311321 -9.350587 8.234066 173.997293 -77.162595 154.507443 -5.178910 8.038241 10.334406 -3.715935 -57.472663 6.248252 -39.539245 67.373985 -44.736993 -6.460095 -2.647587 2.546765 -0.597993 1.114358 -0.375395 -3.218159 -59.565425 18.481772 41.458238 63.643374 36.368388 -17.697334 -9.520337 3.357686 0.233839 -0.843332 0.006756
-50.410350 57.013492 17.995457 158.742343 -15.114127 -0.120727 0.414855 11.304731 3.220364 0.046791 0.808863 0.170962 0.081631 1.385867 0.293368 0.803197 10.476737 2.292919 21.436929 19.201075 -1.069214 39.416249 2.731507 -7.942102 0.396990 6.376223 -2.624987 -3.604675 -7.690790 -8.960356 154.838106 -86.956324 -133.064990 -0.700719 9.014344 -28.743844 -4.717329 5.610271 -0.721187 4.189508 -9.176175 8.146610 174.157991 -77.362437 154.244116 -5.106181 8.139653 10.574283 -3.921923 -57.563860 6.090510 -39.595060 67.495807 -44.755271 -6.416343 -2.795934 2.534405 -0.602492 1.104174 -0.381515 -3.365100 -59.647689 18.336596 41.486176 63.620799 36.399657 -17.681725 -9.504359 3.358431 0.244754 -0.851822 -0.001248
-50.425150 57.017549 17.960852 158.960866 -15.037781 -0.111633 0.494960 11.310343 3.190634 0.053883 0.810439 0.167731 0.093804 1.388547 0.287890 0.892058 10.486710 2.256434 21.630703 19.039807 -1.118456 39.809526 2.504743 -8.118827 0.285414 6.349540 -2.567243 -3.712215 -7.577040 -8.857237 155.247009 -86.975860 -133.369909 -0.710960 8.990295 -28.776008 -4.745792 5.621406 -0.706348 4.074181 -9.013351 8.065658 173.711892 -77.641775 154.513516 -5.004463 8.203018 10.777186 -4.150208 -57.649103 5.955415 -39.657975 67.622468 -44.779528 -6.377692 -2.939592 2.513215 -0.586369 1.085290 -0.382511 -3.515220 -59.723669 18.212944 41.533169 63.602312 36.440988 -17.693665 -9.496142 3.365336 0.259678 -0.864135 0.009161
-50.440889 57.022016 17.924584 159.188461 -14.961504 -0.096262 0.572359 11.314806 3.154323 0.061233 0.811674 0.164367 0.106385 1.390580 0.282175 0.983916 10.494038 2.219074 21.807740 18.875912 -1.170145 40.174383 2.271058 -8.297606 0.169949 6.322742 -2.509741 -3.827054 -7.459618 -8.748833 155.869504 -86.995651 -133.882566 -0.720614 8.968267 -28.808861 -4.769526 5.630909 -0.692992 3.966337 -8.864644 7.996065 172.724491 -77.979194 155.264087 -4.891030 8.223809 10.940968 -4.390900 -57.734190 5.815568 -39.731937 67.748909 -44.815189 -6.342962 -3.089147 2.485913 -0.558684 1.068755 -0.380776 -3.681856 -59.796618 18.080518 41.611177 63.575543 36.504228 -17.687218 -9.486536 3.371594 0.239043 -0.879529 0.012381
-50.455685 57.027032 17.887756 159.420597 -14.884484 -0.084785 0.651241 11.316096 3.121540 0.068715 0.812213 0.160789 0.119188 1.391412 0.276163 1.077679 10.496653 2.180498 21.969028 18.714228 -1.222919 40.511332 2.038721 -8.474775 0.060544 6.297525 -2.450593 -3.955281 -7.336345 -8.638279 156.681814 -87.014414 -134.573841 -0.732937 8.948879 -28.842150 -4.783257 5.641460 -0.679335 3.864787 -8.726840 7.940610 171.247713 -78.350699 156.455429 -4.776058 8.203293 11.074726 -4.660462 -57.816229 5.691894 -39.806927 67.871195 -44.851721 -6.302972 -3.244389 2.456106 -0.523174 1.056079 -0.381393 -3.860623 -59.869378 17.955342 41.654809 63.558248 36.535635 -17.649241 -9.474957 3.369658 0.172067 -0.906957 0.031384
-50.470095 57.032496 17.851524 159.661782 -14.799685 -0.076002 0.725677 11.305514 3.089139 0.076385 0.812007 0.157028 0.132270 1.390991 0.269819 1.174115 10.494303 2.140487 22.114676 18.558056 -1.274822 40.819304 1.812890 -8.645856 -0.043222 6.275234 -2.390061 -4.093134 -7.204884 -8.528863 157.629935 -87.035199 -135.388693 -0.745997 8.929118 -28.875364 -4.785195 5.650754 -0.664929 3.767991 -8.595182 7.901593 169.342385 -78.739182 158.036828 -4.661644 8.148344 11.189046 -4.961270 -57.901335 5.580763 -39.876172 67.989448 -44.881810 -6.254173 -3.408085 2.421018 -0.503399 1.050904 -0.383242 -4.047906 -59.949086 17.826555 41.571538 63.573772 36.456197 -17.545044 -9.460995 3.378811 0.140881 -0.921745 0.023945
-50.485048 57.039217 17.813088 159.901712 -14.722017 -0.054346 0.803695 11.297331 3.046746 0.084247 0.811217 0.153143 0.145661 1.389670 0.263142 1.273160 10.488118 2.098824 22.245546 18.408926 -1.324917 41.099260 1.596049 -8.808823 -0.141348 6.255368 -2.330444 -4.236724 -7.067836 -8.423734 158.665239 -87.064394 -136.282125 -0.758523 8.909845 -28.909370 -4.775556 5.655683 -0.650481 3.673500 -8.467851 7.878795 167.082414 -79.128885 159.944011 -4.549945 8.072293 11.291748 -5.258768 -57.975654 5.455423 -39.938532 68.105232 -44.906252 -6.200324 -3.582708 2.379067 -0.479955 1.054144 -0.380836 -4.210528 -60.022616 17.671899 41.578765 63.566963 36.454138 -17.499585 -9.447052 3.407402 0.134384 -0.937809 0.002271
-50.491734 57.047614 17.774451 160.132929 -14.659041 -0.069525 0.901967 11.297823 3.049720 0.092366 0.809848 0.149129 0.159502 1.387438 0.256301 1.375509 10.477757 2.056396 22.362410 18.267103 -1.372791 41.352342 1.388521 -8.962966 -0.231995 6.241381 -2.272359 -4.386929 -6.928079 -8.326963 159.766759 -87.102333 -137.234349 -0.772381 8.889788 -28.942863 -4.755623 5.657343 -0.638075 3.578820 -8.346749 7.869776 164.577768 -79.500878 162.072344 -4.442855 7.988656 11.388959 -5.622087 -58.025133 5.409791 -39.994896 68.214468 -44.923971 -6.126036 -3.752692 2.337977 -0.455111 1.051803 -0.382840 -4.382323 -60.084986 17.589680 41.513705 63.584199 36.392482 -17.481420 -9.437098 3.407760 0.165228 -0.945385 0.011940
-50.502684 57.056854 17.734392 160.368604 -14.591890 -0.049756 0.990454 11.289621 3.020407 0.100857 0.807985 0.145073 0.174073 1.384319 0.249532 1.483734 10.463163 2.014995 22.465976 18.131344 -1.418484 41.579963 1.188212 -9.108927 -0.318086 6.236316 -2.215883 -4.539675 -6.784902 -8.241604 160.966395 -87.142331 -138.278607 -0.791531 8.868662 -28.980619 -4.727484 5.657059 -0.625800 3.477863 -8.234160 7.869103 161.981267 -79.840603 164.281754 -4.340721 7.906406 11.486217 -5.942034 -58.077073 5.300085 -40.048572 68.317431 -44.935437 -6.046002 -3.938683 2.266825 -0.439224 1.067451 -0.359241 -4.542469 -60.145082 17.440171 41.535954 63.569005 36.404120 -17.434788 -9.417093 3.418235 0.126453 -0.970525 0.003731
